<?xml version="1.0" encoding="iso-8859-1"?>
<!-- Generator: Adobe Illustrator 19.0.0, SVG Export Plug-In . SVG Version: 6.00 Build 0)  -->
<svg version="1.1" id="Layer_1" xmlns="http://www.w3.org/2000/svg" xmlns:xlink="http://www.w3.org/1999/xlink" x="0px" y="0px"
	 viewBox="0 0 512 512" style="enable-background:new 0 0 512 512;" xml:space="preserve">
<g>
	<g>
		<path d="M411.565,111.33L302.629,2.393C301.095,0.861,299.018,0,296.851,0H54.497c-4.097,0-5.476,0-7.655,1.634
			c-2.058,1.544-3.268,3.964-3.268,6.536v441.191c0,4.512,3.657,8.17,8.17,8.17h168.858c4.513,0,8.17-3.658,8.17-8.17
			s-3.658-8.17-8.17-8.17H59.915V16.34c37.32,0,191.422,0,228.766,0v100.766c0,4.512,3.657,8.17,8.17,8.17h100.766v138.899
			c0,4.512,3.657,8.17,8.17,8.17s8.17-3.658,8.17-8.17V117.106C413.957,114.94,413.097,112.861,411.565,111.33z M305.021,108.936
			V27.895l81.041,81.041H305.021z"/>
	</g>
</g>
<g>
	<g>
		<path d="M337.702,177.021H119.83c-4.513,0-8.17,3.658-8.17,8.17c0,4.512,3.657,8.17,8.17,8.17h217.872
			c4.513,0,8.17-3.658,8.17-8.17C345.872,180.679,342.215,177.021,337.702,177.021z"/>
	</g>
</g>
<g>
	<g>
		<path d="M337.702,220.596H119.83c-4.513,0-8.17,3.658-8.17,8.17c0,4.512,3.657,8.17,8.17,8.17h217.872
			c4.513,0,8.17-3.658,8.17-8.17C345.872,224.254,342.215,220.596,337.702,220.596z"/>
	</g>
</g>
<g>
	<g>
		<path d="M228.766,264.17H119.83c-4.513,0-8.17,3.658-8.17,8.17c0,4.512,3.657,8.17,8.17,8.17h108.936
			c4.513,0,8.17-3.658,8.17-8.17C236.936,267.828,233.279,264.17,228.766,264.17z"/>
	</g>
</g>
<g>
	<g>
		<path d="M386.723,362.86v-14.264c0-19.252-15.221-33.77-35.404-33.77c-19.522,0-35.404,15.882-35.404,35.404v12.63
			c-12.497,1.107-22.332,11.628-22.332,24.408v50.111c0,13.515,10.996,24.511,24.511,24.511h66.451
			c13.515,0,24.511-10.996,24.511-24.511v-50.111C409.055,374.488,399.22,363.967,386.723,362.86z M332.255,350.23
			c0-10.511,8.553-19.064,19.064-19.064c11.047,0,19.064,7.33,19.064,17.43v14.162h-38.128V350.23z M392.715,437.379
			c0,4.505-3.665,8.17-8.17,8.17h-66.451c-4.506,0-8.17-3.666-8.17-8.17v-50.111c0-4.505,3.665-8.17,8.17-8.17h66.451
			c4.506,0,8.17,3.666,8.17,8.17V437.379z"/>
	</g>
</g>
<g>
	<g>
		<path d="M351.319,395.983c-4.513,0-8.17,3.658-8.17,8.17v16.34c0,4.512,3.657,8.17,8.17,8.17s8.17-3.658,8.17-8.17v-16.34
			C359.489,399.641,355.832,395.983,351.319,395.983z"/>
	</g>
</g>
<g>
	<g>
		<path d="M351.319,277.787c-64.572,0-117.106,52.533-117.106,117.106S286.747,512,351.319,512s117.106-52.533,117.106-117.106
			S415.891,277.787,351.319,277.787z M351.319,495.66c-55.563,0-100.766-45.203-100.766-100.766
			c0-55.563,45.203-100.766,100.766-100.766s100.766,45.203,100.766,100.766C452.085,450.457,406.882,495.66,351.319,495.66z"/>
	</g>
</g>
<g>
</g>
<g>
</g>
<g>
</g>
<g>
</g>
<g>
</g>
<g>
</g>
<g>
</g>
<g>
</g>
<g>
</g>
<g>
</g>
<g>
</g>
<g>
</g>
<g>
</g>
<g>
</g>
<g>
</g>
</svg>
